---
title: 群星.1986-国语金曲尽精英【瑞成】【WAV+CUE】
date: 2023-02-21 13:23:33
categories: WAV车载音乐、镜像
tags: 华语中文
---
# 群星.1986-国语金曲尽精英【瑞成】【WAV+CUE】

REM DATE 1986
PERFORMER "群星"
TITLE "国语金曲尽精英"
FILE "群星 - 国语金曲尽精英.wav" WAVE
TRACK 01 AUDIO
TITLE "你的眼神"
PERFORMER "蔡琴"
INDEX 01 00:00:00
TRACK 02 AUDIO
TITLE "今天不回家"
PERFORMER "姚苏蓉"
INDEX 01 03:50:32
TRACK 03 AUDIO
TITLE "晶晶"
PERFORMER "邓丽君"
INDEX 01 06:44:05
TRACK 04 AUDIO
TITLE "泪的小花"
PERFORMER "青山"
INDEX 01 09:17:25
TRACK 05 AUDIO
TITLE "负心的人"
PERFORMER "汤兰花"
INDEX 01 11:44:30
TRACK 06 AUDIO
TITLE "绿岛小夜曲"
PERFORMER "紫薇"
INDEX 01 14:46:25
TRACK 07 AUDIO
TITLE "意难忘"
PERFORMER "美黛"
INDEX 01 18:10:35
TRACK 08 AUDIO
TITLE "今夜雨濛濛"
PERFORMER "杨小萍"
INDEX 01 23:07:10
TRACK 09 AUDIO
TITLE "誓言"
PERFORMER "甄妮"
INDEX 01 25:37:50
TRACK 10 AUDIO
TITLE "梅花"
PERFORMER "刘家昌"
INDEX 01 28:26:10
TRACK 11 AUDIO
TITLE "枫叶情"
PERFORMER "凤飞飞"
INDEX 01 30:52:40
TRACK 12 AUDIO
TITLE "往事只能回味"
PERFORMER "尤雅"
INDEX 01 34:31:52
TRACK 13 AUDIO
TITLE "苹果花"
PERFORMER "杨燕"
INDEX 01 38:00:02
TRACK 14 AUDIO
TITLE "海鸥"
PERFORMER "翁倩玉"
INDEX 01 41:27:07
TRACK 15 AUDIO
TITLE "中华民族"
PERFORMER "费玉清"
INDEX 01 44:01:45
TRACK 16 AUDIO
TITLE "热情的沙漠"
PERFORMER "欧阳菲菲"
INDEX 01 47:10:67
下载地址：
群星.1986 - 国语金曲尽精英【瑞成】【WAV+CUE】.rar: https://url27.ctfile.com/f/9388027-811571556-cc02dc?p=559675
(访问密码: 559675)
语言:粤语
制作来源地:中国香港
光碟格式:Super Audio CD, 镭射唱片
其他信息: SACD
限量獨立1000張編號 原裝封面底式樣
专辑曲目
01 掌声响起  凤飞飞
02 爱的淚珠  黄莺莺
03 淚的衣裳  邓丽君
04 魂萦旧梦  蔡琴
05 爱的迷恋  翁倩玉
06 月儿像柠檬  姚苏蓉
07 兰花草  沈雁
08 月亮代表我的心  陈芬兰
09 送君  黄晓君
10 真真的爱  甄妮
11 为什么春天要迟到  崔苔菁
12 绿岛小夜曲   紫薇
13 烟雨斜阳  江蕾
14 走不完的爱  叶寇
15 喝采  欧阳菲菲
16 在我们小的时候  上官萍
下载地址：
群星.1986 - 国语金曲尽精英【瑞成】【WAV+CUE】.rar: https://url27.ctfile.com/f/9388027-811571556-cc02dc?p=559675
(访问密码: 559675)
群星 - 国语金曲尽精英【SACD】.zip: https://url27.ctfile.com/f/9388027-402996384-82d3ad?p=559675
(访问密码: 559675)
原文：[链接](https://blog.sina.com.cn/s/blog_1647c7e76010310v3.html)